<?xml version="1.0" encoding="UTF-8" standalone="no"?>
<svg width="595.44px" height="841.68px" viewBox="0 0 595.44 841.68"
 xmlns="http://www.w3.org/2000/svg" xmlns:xlink="http://www.w3.org/1999/xlink" version="1.2" baseProfile="tiny">
<title>Isorhythmic motets</title>
<desc>Generated by MuseScore 2.0.3</desc>
<polyline class="StaffLines" fill="none" stroke="#000000" stroke-width="0.40" stroke-linejoin="bevel" points="28.3465,113.347 567.094,113.347"/>
<polyline class="StaffLines" fill="none" stroke="#000000" stroke-width="0.40" stroke-linejoin="bevel" points="28.3465,118.347 567.094,118.347"/>
<polyline class="StaffLines" fill="none" stroke="#000000" stroke-width="0.40" stroke-linejoin="bevel" points="28.3465,123.347 567.094,123.347"/>
<polyline class="StaffLines" fill="none" stroke="#000000" stroke-width="0.40" stroke-linejoin="bevel" points="28.3465,128.347 567.094,128.347"/>
<polyline class="StaffLines" fill="none" stroke="#000000" stroke-width="0.40" stroke-linejoin="bevel" points="28.3465,133.347 567.094,133.347"/>
<polyline class="StaffLines" fill="none" stroke="#000000" stroke-width="0.40" stroke-linejoin="bevel" points="28.3465,208.347 567.094,208.347"/>
<polyline class="StaffLines" fill="none" stroke="#000000" stroke-width="0.40" stroke-linejoin="bevel" points="28.3465,213.347 567.094,213.347"/>
<polyline class="StaffLines" fill="none" stroke="#000000" stroke-width="0.40" stroke-linejoin="bevel" points="28.3465,218.347 567.094,218.347"/>
<polyline class="StaffLines" fill="none" stroke="#000000" stroke-width="0.40" stroke-linejoin="bevel" points="28.3465,223.347 567.094,223.347"/>
<polyline class="StaffLines" fill="none" stroke="#000000" stroke-width="0.40" stroke-linejoin="bevel" points="28.3465,228.347 567.094,228.347"/>
<path class="Text" d="M25.8104,192.009 C25.7144,192.009 25.5224,192.067 25.2345,192.185 L25.2345,192.073 L26.6745,191.345 L26.7385,191.361 L26.7385,196.161 C26.7385,196.353 26.7865,196.478 26.8825,196.537 C26.9785,196.595 27.1838,196.627 27.4985,196.633 L27.4985,196.753 L25.2904,196.753 L25.2904,196.633 C25.5891,196.622 25.7904,196.578 25.8944,196.501 C25.9985,196.423 26.0505,196.259 26.0505,196.009 L26.0505,192.385 C26.0505,192.134 25.9704,192.009 25.8104,192.009 M31.2024,195.201 C31.2024,194.918 31.1398,194.667 31.0145,194.449 C30.8891,194.23 30.7371,194.061 30.5585,193.941 C30.3798,193.821 30.1798,193.722 29.9584,193.645 C29.7371,193.567 29.5451,193.517 29.3824,193.493 C29.2198,193.469 29.0771,193.457 28.9545,193.457 C28.8905,193.457 28.8585,193.435 28.8585,193.393 C28.8585,193.377 28.8611,193.363 28.8665,193.353 L29.7385,191.457 L31.4105,191.457 C31.4958,191.457 31.5638,191.443 31.6145,191.417 C31.6651,191.39 31.7198,191.334 31.7784,191.249 L31.8505,191.305 L31.5465,192.017 C31.5251,192.065 31.4638,192.089 31.3625,192.089 L29.7945,192.089 L29.4584,192.769 C30.2371,192.907 30.8158,193.133 31.1944,193.445 C31.5731,193.757 31.7625,194.214 31.7625,194.817 C31.7625,195.131 31.7131,195.411 31.6145,195.657 C31.5158,195.902 31.3905,196.099 31.2385,196.249 C31.0864,196.398 30.9105,196.521 30.7105,196.617 C30.5105,196.713 30.3185,196.778 30.1345,196.813 C29.9505,196.847 29.7651,196.865 29.5785,196.865 C29.2798,196.865 29.0425,196.821 28.8665,196.733 C28.6905,196.645 28.6025,196.523 28.6025,196.369 C28.6025,196.171 28.7171,196.073 28.9464,196.073 C29.0958,196.073 29.2891,196.155 29.5265,196.321 C29.7638,196.486 29.9518,196.569 30.0905,196.569 C30.4051,196.569 30.6691,196.437 30.8824,196.173 C31.0958,195.909 31.2024,195.585 31.2024,195.201"/>
<path class="Text" d="M208.347,47.3242 L208.347,36.6682 C208.347,35.7882 208.215,35.2242 207.951,34.9762 C207.687,34.7282 207.043,34.5722 206.019,34.5082 L206.019,34.0522 L213.147,34.0522 L213.147,34.5082 C212.139,34.5562 211.495,34.7082 211.215,34.9642 C210.935,35.2202 210.795,35.7882 210.795,36.6682 L210.795,47.3242 C210.795,48.2042 210.939,48.7762 211.227,49.0402 C211.515,49.3042 212.155,49.4522 213.147,49.4842 L213.147,49.9402 L206.019,49.9402 L206.019,49.4842 C207.027,49.4522 207.667,49.3082 207.939,49.0522 C208.211,48.7962 208.347,48.2202 208.347,47.3242 M219.935,39.3802 C219.951,39.3802 220.079,39.3002 220.319,39.1402 L220.583,39.1402 L220.679,42.4042 L220.319,42.4042 C220.047,41.3322 219.711,40.5722 219.311,40.1242 C218.911,39.6762 218.367,39.4522 217.679,39.4522 C217.135,39.4522 216.691,39.6042 216.347,39.9082 C216.003,40.2122 215.831,40.6042 215.831,41.0842 C215.831,41.7722 216.175,42.3162 216.863,42.7162 L219.455,44.2522 C220.175,44.6842 220.691,45.1202 221.003,45.5602 C221.315,46.0002 221.471,46.5162 221.471,47.1082 C221.471,47.9402 221.139,48.6602 220.475,49.2682 C219.811,49.8762 219.015,50.1802 218.087,50.1802 C217.687,50.1802 217.151,50.1082 216.479,49.9642 C215.807,49.8202 215.391,49.7482 215.231,49.7482 C214.991,49.7482 214.807,49.8442 214.679,50.0362 L214.367,50.0362 L214.367,46.2922 L214.751,46.2922 C215.007,47.4122 215.311,48.2042 215.663,48.6682 C216.175,49.3242 216.887,49.6522 217.799,49.6522 C218.407,49.6522 218.891,49.4962 219.251,49.1842 C219.611,48.8722 219.791,48.4522 219.791,47.9242 C219.791,47.2042 219.375,46.6042 218.543,46.1242 L217.151,45.3322 C216.127,44.7562 215.403,44.2042 214.979,43.6762 C214.555,43.1482 214.343,42.5482 214.343,41.8762 C214.343,41.0122 214.651,40.3042 215.267,39.7522 C215.883,39.2002 216.663,38.9242 217.607,38.9242 C218.135,38.9242 218.631,39.0002 219.095,39.1522 C219.559,39.3042 219.839,39.3802 219.935,39.3802 M228.204,38.9002 C229.74,38.9002 231.004,39.4122 231.996,40.4362 C232.988,41.4602 233.484,42.7562 233.484,44.3242 C233.484,45.9882 232.972,47.3802 231.948,48.5002 C230.924,49.6202 229.66,50.1802 228.156,50.1802 C226.652,50.1802 225.4,49.6402 224.4,48.5602 C223.4,47.4802 222.9,46.1322 222.9,44.5162 C222.9,42.8682 223.392,41.5202 224.376,40.4722 C225.36,39.4242 226.636,38.9002 228.204,38.9002 M225.06,43.3402 C225.06,45.0522 225.372,46.5082 225.996,47.7082 C226.62,48.9082 227.436,49.5082 228.444,49.5082 C229.34,49.5082 230.044,49.1242 230.556,48.3562 C231.068,47.5882 231.324,46.5242 231.324,45.1642 C231.324,43.5162 231.004,42.1722 230.364,41.1322 C229.724,40.0922 228.9,39.5722 227.892,39.5722 C227.044,39.5722 226.36,39.9162 225.84,40.6042 C225.32,41.2922 225.06,42.2042 225.06,43.3402 M241.305,41.2522 C241.065,41.2522 240.769,41.1122 240.417,40.8322 C240.065,40.5522 239.833,40.4122 239.721,40.4122 C239.401,40.4122 239.041,40.6442 238.641,41.1082 C238.241,41.5722 238.041,41.9962 238.041,42.3802 L238.041,47.7802 C238.041,48.4682 238.177,48.9322 238.449,49.1722 C238.721,49.4122 239.265,49.5482 240.081,49.5802 L240.081,49.9402 L234.321,49.9402 L234.321,49.5802 C235.089,49.4362 235.565,49.2762 235.749,49.1002 C235.933,48.9242 236.025,48.5322 236.025,47.9242 L236.025,41.9242 C236.025,41.3962 235.965,41.0242 235.845,40.8082 C235.725,40.5922 235.513,40.4842 235.209,40.4842 C234.953,40.4842 234.673,40.5162 234.369,40.5802 L234.369,40.1962 C235.649,39.7802 236.833,39.3482 237.921,38.9002 L238.041,38.9482 L238.041,41.1562 C238.633,40.3082 239.137,39.7202 239.553,39.3922 C239.969,39.0642 240.425,38.9002 240.921,38.9002 C241.337,38.9002 241.661,39.0122 241.893,39.2362 C242.125,39.4602 242.241,39.7722 242.241,40.1722 C242.241,40.5082 242.157,40.7722 241.989,40.9642 C241.821,41.1562 241.593,41.2522 241.305,41.2522 M246.138,41.7082 L246.138,47.4922 C246.138,48.3242 246.234,48.8602 246.426,49.1002 C246.618,49.3402 247.066,49.5002 247.77,49.5802 L247.77,49.9402 L242.586,49.9402 L242.586,49.5802 C243.274,49.4842 243.702,49.3242 243.87,49.1002 C244.038,48.8762 244.122,48.3402 244.122,47.4922 L244.122,36.1882 C244.122,35.6762 244.054,35.3402 243.918,35.1802 C243.782,35.0202 243.482,34.9402 243.018,34.9402 C242.906,34.9402 242.77,34.9562 242.61,34.9882 L242.61,34.6042 C243.746,34.3002 244.882,33.9482 246.018,33.5482 L246.138,33.6202 L246.138,40.9162 C246.682,40.1962 247.23,39.6802 247.782,39.3682 C248.334,39.0562 248.962,38.9002 249.666,38.9002 C251.634,38.9002 252.618,40.1722 252.618,42.7162 L252.618,47.4922 C252.618,48.3242 252.694,48.8482 252.846,49.0642 C252.998,49.2802 253.402,49.4522 254.058,49.5802 L254.058,49.9402 L248.97,49.9402 L248.97,49.5802 C249.658,49.5162 250.102,49.3562 250.302,49.1002 C250.502,48.8442 250.602,48.3082 250.602,47.4922 L250.602,42.7402 C250.602,41.0442 250.002,40.1962 248.802,40.1962 C248.338,40.1962 247.902,40.3122 247.494,40.5442 C247.086,40.7762 246.634,41.1642 246.138,41.7082 M257.692,53.1562 C258.14,53.1562 258.612,52.6602 259.108,51.6682 C259.604,50.6762 259.852,49.9482 259.852,49.4842 C259.852,49.2762 259.5,48.4682 258.796,47.0602 L255.628,40.2442 C255.436,39.8282 255.028,39.5722 254.404,39.4762 L254.404,39.1402 L259.348,39.1402 L259.348,39.5002 C258.836,39.5162 258.476,39.5722 258.268,39.6682 C258.06,39.7642 257.956,39.9242 257.956,40.1482 C257.956,40.3882 258.036,40.6922 258.196,41.0602 L260.956,47.1322 L263.284,40.5082 C263.348,40.3642 263.38,40.2282 263.38,40.1002 C263.38,39.7002 262.996,39.5002 262.228,39.5002 L262.228,39.1402 L265.468,39.1402 L265.468,39.5002 C265.18,39.5322 264.952,39.6242 264.784,39.7762 C264.616,39.9282 264.46,40.1962 264.316,40.5802 L260.62,50.3722 C259.98,52.1002 259.344,53.3322 258.712,54.0682 C258.08,54.8042 257.364,55.1722 256.564,55.1722 C256.052,55.1722 255.628,55.0402 255.292,54.7762 C254.956,54.5122 254.788,54.1802 254.788,53.7802 C254.788,53.4922 254.892,53.2442 255.1,53.0362 C255.308,52.8282 255.548,52.7242 255.82,52.7242 C256.172,52.7242 256.548,52.7962 256.948,52.9402 C257.348,53.0842 257.596,53.1562 257.692,53.1562 M271.797,39.1402 L271.797,39.9082 L269.373,39.9082 L269.373,46.7722 C269.373,47.5242 269.469,48.0722 269.661,48.4162 C269.853,48.7602 270.173,48.9322 270.621,48.9322 C271.117,48.9322 271.597,48.6522 272.061,48.0922 L272.373,48.3562 C271.605,49.5722 270.645,50.1802 269.493,50.1802 C268.069,50.1802 267.357,49.1642 267.357,47.1322 L267.357,39.9082 L266.085,39.9082 C266.021,39.8602 265.989,39.8042 265.989,39.7402 C265.989,39.6602 266.013,39.5962 266.061,39.5482 C266.109,39.5002 266.201,39.4322 266.337,39.3442 C266.473,39.2562 266.637,39.1362 266.829,38.9842 C267.021,38.8322 267.285,38.5562 267.621,38.1562 C267.957,37.7562 268.325,37.2762 268.725,36.7162 C268.981,36.3482 269.141,36.1242 269.205,36.0442 C269.317,36.0442 269.373,36.1482 269.373,36.3562 L269.373,39.1402 L271.797,39.1402 M276.154,41.7082 L276.154,47.4922 C276.154,48.3242 276.25,48.8602 276.442,49.1002 C276.634,49.3402 277.082,49.5002 277.786,49.5802 L277.786,49.9402 L272.602,49.9402 L272.602,49.5802 C273.29,49.4842 273.718,49.3242 273.886,49.1002 C274.054,48.8762 274.138,48.3402 274.138,47.4922 L274.138,36.1882 C274.138,35.6762 274.07,35.3402 273.934,35.1802 C273.798,35.0202 273.498,34.9402 273.034,34.9402 C272.922,34.9402 272.786,34.9562 272.626,34.9882 L272.626,34.6042 C273.762,34.3002 274.898,33.9482 276.034,33.5482 L276.154,33.6202 L276.154,40.9162 C276.698,40.1962 277.246,39.6802 277.798,39.3682 C278.35,39.0562 278.978,38.9002 279.682,38.9002 C281.65,38.9002 282.634,40.1722 282.634,42.7162 L282.634,47.4922 C282.634,48.3242 282.71,48.8482 282.862,49.0642 C283.014,49.2802 283.418,49.4522 284.074,49.5802 L284.074,49.9402 L278.986,49.9402 L278.986,49.5802 C279.674,49.5162 280.118,49.3562 280.318,49.1002 C280.518,48.8442 280.618,48.3082 280.618,47.4922 L280.618,42.7402 C280.618,41.0442 280.018,40.1962 278.818,40.1962 C278.354,40.1962 277.918,40.3122 277.51,40.5442 C277.102,40.7762 276.65,41.1642 276.154,41.7082 M284.612,40.3882 L284.612,39.9802 C285.764,39.6602 286.884,39.3002 287.972,38.9002 L288.14,38.9482 L288.14,40.7482 C289.132,39.9962 289.868,39.5002 290.348,39.2602 C290.828,39.0202 291.332,38.9002 291.86,38.9002 C293.124,38.9002 293.972,39.5722 294.404,40.9162 C295.652,39.5722 296.956,38.9002 298.316,38.9002 C300.172,38.9002 301.1,40.3242 301.1,43.1722 L301.1,48.1162 C301.1,49.0122 301.444,49.4842 302.132,49.5322 L302.756,49.5802 L302.756,49.9402 L297.5,49.9402 L297.5,49.5802 C298.204,49.5002 298.644,49.3642 298.82,49.1722 C298.996,48.9802 299.084,48.5402 299.084,47.8522 L299.084,42.7882 C299.084,41.7962 298.956,41.1082 298.7,40.7242 C298.444,40.3402 297.972,40.1482 297.284,40.1482 C296.228,40.1482 295.356,40.6362 294.668,41.6122 L294.668,47.6602 C294.668,48.4122 294.784,48.9162 295.016,49.1722 C295.248,49.4282 295.708,49.5642 296.396,49.5802 L296.396,49.9402 L291.02,49.9402 L291.02,49.5802 C291.708,49.5322 292.152,49.4042 292.352,49.1962 C292.552,48.9882 292.652,48.5482 292.652,47.8762 L292.652,42.6682 C292.652,40.9882 292.124,40.1482 291.068,40.1482 C290.62,40.1482 290.12,40.2602 289.568,40.4842 C289.016,40.7082 288.572,41.0682 288.236,41.5642 L288.236,48.3322 C288.236,48.7962 288.348,49.1122 288.572,49.2802 C288.796,49.4482 289.228,49.5482 289.868,49.5802 L289.868,49.9402 L284.54,49.9402 L284.54,49.5802 C285.212,49.5642 285.66,49.4442 285.884,49.2202 C286.108,48.9962 286.22,48.5562 286.22,47.9002 L286.22,41.8282 C286.22,41.2522 286.16,40.8522 286.04,40.6282 C285.92,40.4042 285.7,40.2922 285.38,40.2922 C285.14,40.2922 284.884,40.3242 284.612,40.3882 M304.475,40.5082 C304.123,40.5082 303.787,40.5322 303.467,40.5802 L303.467,40.2202 C304.587,39.9002 305.827,39.4602 307.187,38.9002 L307.283,38.9722 L307.283,47.4922 C307.283,48.3562 307.383,48.9042 307.583,49.1362 C307.783,49.3682 308.275,49.5162 309.059,49.5802 L309.059,49.9402 L303.371,49.9402 L303.371,49.5802 C304.203,49.5322 304.727,49.3882 304.943,49.1482 C305.159,48.9082 305.267,48.3562 305.267,47.4922 L305.267,41.9242 C305.267,41.3962 305.207,41.0282 305.087,40.8202 C304.967,40.6122 304.763,40.5082 304.475,40.5082 M306.059,33.5482 C306.411,33.5482 306.707,33.6682 306.947,33.9082 C307.187,34.1482 307.307,34.4362 307.307,34.7722 C307.307,35.1242 307.187,35.4162 306.947,35.6482 C306.707,35.8802 306.411,35.9962 306.059,35.9962 C305.723,35.9962 305.439,35.8762 305.207,35.6362 C304.975,35.3962 304.859,35.1082 304.859,34.7722 C304.859,34.4362 304.979,34.1482 305.219,33.9082 C305.459,33.6682 305.739,33.5482 306.059,33.5482 M310.259,44.8282 C310.259,43.0522 310.783,41.6202 311.831,40.5322 C312.879,39.4442 314.107,38.9002 315.515,38.9002 C316.523,38.9002 317.391,39.1442 318.119,39.6322 C318.847,40.1202 319.211,40.7002 319.211,41.3722 C319.211,41.6442 319.099,41.8802 318.875,42.0802 C318.651,42.2802 318.379,42.3802 318.059,42.3802 C317.515,42.3802 317.139,42.0122 316.931,41.2762 L316.787,40.7482 C316.659,40.3002 316.499,39.9962 316.307,39.8362 C316.115,39.6762 315.803,39.5962 315.371,39.5962 C314.395,39.5962 313.607,39.9842 313.007,40.7602 C312.407,41.5362 312.107,42.5402 312.107,43.7722 C312.107,45.1482 312.455,46.2722 313.151,47.1442 C313.847,48.0162 314.739,48.4522 315.827,48.4522 C316.515,48.4522 317.107,48.2842 317.603,47.9482 C318.099,47.6122 318.635,47.0282 319.211,46.1962 L319.547,46.4122 C319.387,46.7322 319.247,46.9962 319.127,47.2042 C319.007,47.4122 318.791,47.7242 318.479,48.1402 C318.167,48.5562 317.859,48.8922 317.555,49.1482 C317.251,49.4042 316.851,49.6402 316.355,49.8562 C315.859,50.0722 315.347,50.1802 314.819,50.1802 C313.491,50.1802 312.399,49.6802 311.543,48.6802 C310.687,47.6802 310.259,46.3962 310.259,44.8282 M326.612,40.3882 L326.612,39.9802 C327.764,39.6602 328.884,39.3002 329.972,38.9002 L330.14,38.9482 L330.14,40.7482 C331.132,39.9962 331.868,39.5002 332.348,39.2602 C332.828,39.0202 333.332,38.9002 333.86,38.9002 C335.124,38.9002 335.972,39.5722 336.404,40.9162 C337.652,39.5722 338.956,38.9002 340.316,38.9002 C342.172,38.9002 343.1,40.3242 343.1,43.1722 L343.1,48.1162 C343.1,49.0122 343.444,49.4842 344.132,49.5322 L344.756,49.5802 L344.756,49.9402 L339.5,49.9402 L339.5,49.5802 C340.204,49.5002 340.644,49.3642 340.82,49.1722 C340.996,48.9802 341.084,48.5402 341.084,47.8522 L341.084,42.7882 C341.084,41.7962 340.956,41.1082 340.7,40.7242 C340.444,40.3402 339.972,40.1482 339.284,40.1482 C338.228,40.1482 337.356,40.6362 336.668,41.6122 L336.668,47.6602 C336.668,48.4122 336.784,48.9162 337.016,49.1722 C337.248,49.4282 337.708,49.5642 338.396,49.5802 L338.396,49.9402 L333.02,49.9402 L333.02,49.5802 C333.708,49.5322 334.152,49.4042 334.352,49.1962 C334.552,48.9882 334.652,48.5482 334.652,47.8762 L334.652,42.6682 C334.652,40.9882 334.124,40.1482 333.068,40.1482 C332.62,40.1482 332.12,40.2602 331.568,40.4842 C331.016,40.7082 330.572,41.0682 330.236,41.5642 L330.236,48.3322 C330.236,48.7962 330.348,49.1122 330.572,49.2802 C330.796,49.4482 331.228,49.5482 331.868,49.5802 L331.868,49.9402 L326.54,49.9402 L326.54,49.5802 C327.212,49.5642 327.66,49.4442 327.884,49.2202 C328.108,48.9962 328.22,48.5562 328.22,47.9002 L328.22,41.8282 C328.22,41.2522 328.16,40.8522 328.04,40.6282 C327.92,40.4042 327.7,40.2922 327.38,40.2922 C327.14,40.2922 326.884,40.3242 326.612,40.3882 M350.891,38.9002 C352.427,38.9002 353.691,39.4122 354.683,40.4362 C355.675,41.4602 356.171,42.7562 356.171,44.3242 C356.171,45.9882 355.659,47.3802 354.635,48.5002 C353.611,49.6202 352.347,50.1802 350.843,50.1802 C349.339,50.1802 348.087,49.6402 347.087,48.5602 C346.087,47.4802 345.587,46.1322 345.587,44.5162 C345.587,42.8682 346.079,41.5202 347.063,40.4722 C348.047,39.4242 349.323,38.9002 350.891,38.9002 M347.747,43.3402 C347.747,45.0522 348.059,46.5082 348.683,47.7082 C349.307,48.9082 350.123,49.5082 351.131,49.5082 C352.027,49.5082 352.731,49.1242 353.243,48.3562 C353.755,47.5882 354.011,46.5242 354.011,45.1642 C354.011,43.5162 353.691,42.1722 353.051,41.1322 C352.411,40.0922 351.587,39.5722 350.579,39.5722 C349.731,39.5722 349.047,39.9162 348.527,40.6042 C348.007,41.2922 347.747,42.2042 347.747,43.3402 M362.984,39.1402 L362.984,39.9082 L360.56,39.9082 L360.56,46.7722 C360.56,47.5242 360.656,48.0722 360.848,48.4162 C361.04,48.7602 361.36,48.9322 361.808,48.9322 C362.304,48.9322 362.784,48.6522 363.248,48.0922 L363.56,48.3562 C362.792,49.5722 361.832,50.1802 360.68,50.1802 C359.256,50.1802 358.544,49.1642 358.544,47.1322 L358.544,39.9082 L357.272,39.9082 C357.208,39.8602 357.176,39.8042 357.176,39.7402 C357.176,39.6602 357.2,39.5962 357.248,39.5482 C357.296,39.5002 357.388,39.4322 357.524,39.3442 C357.66,39.2562 357.824,39.1362 358.016,38.9842 C358.208,38.8322 358.472,38.5562 358.808,38.1562 C359.144,37.7562 359.512,37.2762 359.912,36.7162 C360.168,36.3482 360.328,36.1242 360.392,36.0442 C360.504,36.0442 360.56,36.1482 360.56,36.3562 L360.56,39.1402 L362.984,39.1402 M365.878,43.2922 C365.91,44.3002 366.046,45.1682 366.286,45.8962 C366.526,46.6242 366.838,47.1682 367.222,47.5282 C367.606,47.8882 367.994,48.1442 368.386,48.2962 C368.778,48.4482 369.19,48.5242 369.622,48.5242 C370.39,48.5242 371.058,48.3322 371.626,47.9482 C372.194,47.5642 372.766,46.9162 373.342,46.0042 L373.726,46.1722 C373.23,47.4682 372.542,48.4602 371.662,49.1482 C370.782,49.8362 369.774,50.1802 368.638,50.1802 C367.262,50.1802 366.17,49.6962 365.362,48.7282 C364.554,47.7602 364.15,46.4522 364.15,44.8042 C364.15,43.0282 364.618,41.6002 365.554,40.5202 C366.49,39.4402 367.694,38.9002 369.166,38.9002 C370.382,38.9002 371.326,39.2642 371.998,39.9922 C372.67,40.7202 373.094,41.8202 373.27,43.2922 L365.878,43.2922 M365.926,42.5242 L370.822,42.5242 C370.662,41.4842 370.414,40.7642 370.078,40.3642 C369.742,39.9642 369.206,39.7642 368.47,39.7642 C367.03,39.7642 366.182,40.6842 365.926,42.5242 M380.406,39.1402 L380.406,39.9082 L377.982,39.9082 L377.982,46.7722 C377.982,47.5242 378.078,48.0722 378.27,48.4162 C378.462,48.7602 378.782,48.9322 379.23,48.9322 C379.726,48.9322 380.206,48.6522 380.67,48.0922 L380.982,48.3562 C380.214,49.5722 379.254,50.1802 378.102,50.1802 C376.678,50.1802 375.966,49.1642 375.966,47.1322 L375.966,39.9082 L374.694,39.9082 C374.63,39.8602 374.598,39.8042 374.598,39.7402 C374.598,39.6602 374.622,39.5962 374.67,39.5482 C374.718,39.5002 374.81,39.4322 374.946,39.3442 C375.082,39.2562 375.246,39.1362 375.438,38.9842 C375.63,38.8322 375.894,38.5562 376.23,38.1562 C376.566,37.7562 376.934,37.2762 377.334,36.7162 C377.59,36.3482 377.75,36.1242 377.814,36.0442 C377.926,36.0442 377.982,36.1482 377.982,36.3562 L377.982,39.1402 L380.406,39.1402 M387.403,39.3802 C387.419,39.3802 387.547,39.3002 387.787,39.1402 L388.051,39.1402 L388.147,42.4042 L387.787,42.4042 C387.515,41.3322 387.179,40.5722 386.779,40.1242 C386.379,39.6762 385.835,39.4522 385.147,39.4522 C384.603,39.4522 384.159,39.6042 383.815,39.9082 C383.471,40.2122 383.299,40.6042 383.299,41.0842 C383.299,41.7722 383.643,42.3162 384.331,42.7162 L386.923,44.2522 C387.643,44.6842 388.159,45.1202 388.471,45.5602 C388.783,46.0002 388.939,46.5162 388.939,47.1082 C388.939,47.9402 388.607,48.6602 387.943,49.2682 C387.279,49.8762 386.483,50.1802 385.555,50.1802 C385.155,50.1802 384.619,50.1082 383.947,49.9642 C383.275,49.8202 382.859,49.7482 382.699,49.7482 C382.459,49.7482 382.275,49.8442 382.147,50.0362 L381.835,50.0362 L381.835,46.2922 L382.219,46.2922 C382.475,47.4122 382.779,48.2042 383.131,48.6682 C383.643,49.3242 384.355,49.6522 385.267,49.6522 C385.875,49.6522 386.359,49.4962 386.719,49.1842 C387.079,48.8722 387.259,48.4522 387.259,47.9242 C387.259,47.2042 386.843,46.6042 386.011,46.1242 L384.619,45.3322 C383.595,44.7562 382.871,44.2042 382.447,43.6762 C382.023,43.1482 381.811,42.5482 381.811,41.8762 C381.811,41.0122 382.119,40.3042 382.735,39.7522 C383.351,39.2002 384.131,38.9242 385.075,38.9242 C385.603,38.9242 386.099,39.0002 386.563,39.1522 C387.027,39.3042 387.307,39.3802 387.403,39.3802"/>
<polyline class="BarLine" fill="none" stroke="#000000" stroke-width="0.80" stroke-linejoin="bevel" points="562.194,208.347 562.194,228.347"/>
<polyline class="BarLine" fill="none" stroke="#000000" stroke-width="2.50" stroke-linejoin="bevel" points="565.844,208.347 565.844,228.347"/>
<polyline class="BarLine" fill="none" stroke="#000000" stroke-width="0.80" stroke-linejoin="bevel" points="522.536,208.347 522.536,228.347"/>
<polyline class="BarLine" fill="none" stroke="#000000" stroke-width="0.80" stroke-linejoin="bevel" points="477.22,208.347 477.22,228.347"/>
<polyline class="BarLine" fill="none" stroke="#000000" stroke-width="0.80" stroke-linejoin="bevel" points="437.562,208.347 437.562,228.347"/>
<polyline class="BarLine" fill="none" stroke="#000000" stroke-width="0.80" stroke-linejoin="bevel" points="402.663,208.347 402.663,228.347"/>
<polyline class="BarLine" fill="none" stroke="#000000" stroke-width="0.80" stroke-linejoin="bevel" points="363.005,208.347 363.005,228.347"/>
<polyline class="BarLine" fill="none" stroke="#000000" stroke-width="0.80" stroke-linejoin="bevel" points="317.69,208.347 317.69,228.347"/>
<polyline class="BarLine" fill="none" stroke="#000000" stroke-width="0.80" stroke-linejoin="bevel" points="278.032,208.347 278.032,228.347"/>
<polyline class="BarLine" fill="none" stroke="#000000" stroke-width="0.80" stroke-linejoin="bevel" points="243.132,208.347 243.132,228.347"/>
<polyline class="BarLine" fill="none" stroke="#000000" stroke-width="0.80" stroke-linejoin="bevel" points="203.475,208.347 203.475,228.347"/>
<polyline class="BarLine" fill="none" stroke="#000000" stroke-width="0.80" stroke-linejoin="bevel" points="158.159,208.347 158.159,228.347"/>
<polyline class="BarLine" fill="none" stroke="#000000" stroke-width="0.80" stroke-linejoin="bevel" points="118.501,208.347 118.501,228.347"/>
<polyline class="BarLine" fill="none" stroke="#000000" stroke-width="0.80" stroke-linejoin="bevel" points="83.6019,208.347 83.6019,228.347"/>
<polyline class="BarLine" fill="none" stroke="#000000" stroke-width="0.80" stroke-linejoin="bevel" points="566.694,113.347 566.694,133.347"/>
<polyline class="BarLine" fill="none" stroke="#000000" stroke-width="0.80" stroke-linejoin="bevel" points="525.638,113.347 525.638,133.347"/>
<polyline class="BarLine" fill="none" stroke="#000000" stroke-width="0.80" stroke-linejoin="bevel" points="490.241,113.347 490.241,133.347"/>
<polyline class="BarLine" fill="none" stroke="#000000" stroke-width="0.80" stroke-linejoin="bevel" points="459.602,113.347 459.602,133.347"/>
<polyline class="BarLine" fill="none" stroke="#000000" stroke-width="0.80" stroke-linejoin="bevel" points="424.205,113.347 424.205,133.347"/>
<polyline class="BarLine" fill="none" stroke="#000000" stroke-width="0.80" stroke-linejoin="bevel" points="383.15,113.347 383.15,133.347"/>
<polyline class="BarLine" fill="none" stroke="#000000" stroke-width="0.80" stroke-linejoin="bevel" points="347.753,113.347 347.753,133.347"/>
<polyline class="BarLine" fill="none" stroke="#000000" stroke-width="0.80" stroke-linejoin="bevel" points="317.114,113.347 317.114,133.347"/>
<polyline class="BarLine" fill="none" stroke="#000000" stroke-width="0.80" stroke-linejoin="bevel" points="281.717,113.347 281.717,133.347"/>
<polyline class="BarLine" fill="none" stroke="#000000" stroke-width="0.80" stroke-linejoin="bevel" points="240.662,113.347 240.662,133.347"/>
<polyline class="BarLine" fill="none" stroke="#000000" stroke-width="0.80" stroke-linejoin="bevel" points="205.264,113.347 205.264,133.347"/>
<polyline class="BarLine" fill="none" stroke="#000000" stroke-width="0.80" stroke-linejoin="bevel" points="174.626,113.347 174.626,133.347"/>
<polyline class="BarLine" fill="none" stroke="#000000" stroke-width="0.80" stroke-linejoin="bevel" points="139.229,113.347 139.229,133.347"/>
<polyline class="BarLine" fill="none" stroke="#000000" stroke-width="0.80" stroke-linejoin="bevel" points="98.1734,113.347 98.1734,133.347"/>
<polyline class="Stem" fill="none" stroke="#000000" stroke-width="0.65" stroke-linecap="round" stroke-linejoin="bevel" points="490.239,225.079 490.239,208.347"/>
<polyline class="Stem" fill="none" stroke="#000000" stroke-width="0.65" stroke-linecap="round" stroke-linejoin="bevel" points="330.708,225.079 330.708,208.347"/>
<polyline class="Stem" fill="none" stroke="#000000" stroke-width="0.65" stroke-linecap="round" stroke-linejoin="bevel" points="171.178,230.079 171.178,213.347"/>
<polyline class="Stem" fill="none" stroke="#000000" stroke-width="0.65" stroke-linecap="round" stroke-linejoin="bevel" points="538.657,132.579 538.657,115.847"/>
<polyline class="Stem" fill="none" stroke="#000000" stroke-width="0.65" stroke-linecap="round" stroke-linejoin="bevel" points="396.169,125.079 396.169,109.597"/>
<polyline class="Stem" fill="none" stroke="#000000" stroke-width="0.65" stroke-linecap="round" stroke-linejoin="bevel" points="247.387,124.131 247.387,138.972"/>
<polyline class="Stem" fill="none" stroke="#000000" stroke-width="0.65" stroke-linecap="round" stroke-linejoin="bevel" points="111.192,125.079 111.192,109.597"/>
<path class="Note" d="M533.233,228.6 C532.764,228.6 532.425,228.763 532.217,229.089 C531.983,229.401 531.865,229.824 531.865,230.358 C531.865,230.97 532.028,231.498 532.354,231.94 C532.679,232.37 533.037,232.669 533.428,232.839 C533.779,233.008 534.151,233.093 534.541,233.093 C534.997,233.093 535.342,232.93 535.576,232.604 C535.798,232.279 535.908,231.856 535.908,231.335 C535.908,230.723 535.746,230.196 535.42,229.753 C535.095,229.336 534.743,229.037 534.365,228.854 C533.988,228.685 533.61,228.6 533.233,228.6 M533.897,228.093 C535.303,228.093 536.475,228.366 537.412,228.913 C538.363,229.46 538.838,230.104 538.838,230.847 C538.838,231.641 538.35,232.292 537.373,232.8 C536.397,233.334 535.238,233.6 533.897,233.6 C532.516,233.6 531.345,233.327 530.381,232.78 C529.417,232.233 528.936,231.589 528.936,230.847 C528.936,230.052 529.431,229.401 530.42,228.893 C531.397,228.36 532.556,228.093 533.897,228.093"/>
<path class="Note" d="M501.182,226.1 C500.713,226.1 500.374,226.263 500.166,226.589 C499.932,226.901 499.814,227.324 499.814,227.858 C499.814,228.47 499.977,228.998 500.303,229.44 C500.628,229.87 500.986,230.169 501.377,230.339 C501.728,230.508 502.1,230.593 502.49,230.593 C502.946,230.593 503.291,230.43 503.525,230.104 C503.747,229.779 503.857,229.356 503.857,228.835 C503.857,228.223 503.695,227.696 503.369,227.253 C503.044,226.836 502.692,226.537 502.314,226.354 C501.937,226.185 501.559,226.1 501.182,226.1 M501.846,225.593 C503.252,225.593 504.424,225.866 505.361,226.413 C506.312,226.96 506.787,227.604 506.787,228.347 C506.787,229.141 506.299,229.792 505.322,230.3 C504.346,230.834 503.187,231.1 501.846,231.1 C500.465,231.1 499.294,230.827 498.33,230.28 C497.366,229.733 496.885,229.089 496.885,228.347 C496.885,227.552 497.379,226.901 498.369,226.393 C499.346,225.86 500.504,225.593 501.846,225.593"/>
<path class="Note" d="M489.929,224.538 C489.929,224.317 489.844,224.128 489.675,223.972 C489.505,223.802 489.31,223.718 489.089,223.718 C488.698,223.718 487.91,224.108 486.726,224.89 C485.502,225.684 484.753,226.25 484.479,226.589 C484.336,226.771 484.265,226.96 484.265,227.155 C484.265,227.377 484.349,227.565 484.519,227.722 C484.675,227.891 484.87,227.975 485.104,227.975 C485.482,227.975 486.276,227.585 487.487,226.804 C488.685,226.022 489.427,225.456 489.714,225.104 C489.857,224.935 489.929,224.746 489.929,224.538 M488.894,223.093 C490.013,223.093 490.573,223.574 490.573,224.538 C490.573,225.007 490.436,225.554 490.163,226.179 C489.89,226.791 489.525,227.259 489.069,227.585 C488.067,228.262 486.81,228.6 485.3,228.6 C484.18,228.6 483.62,228.119 483.62,227.155 C483.62,226.725 483.757,226.185 484.03,225.534 C484.291,224.909 484.655,224.434 485.124,224.108 C486.127,223.431 487.383,223.093 488.894,223.093"/>
<path class="Note" d="M448.259,226.1 C447.79,226.1 447.452,226.263 447.243,226.589 C447.009,226.901 446.892,227.324 446.892,227.858 C446.892,228.47 447.055,228.998 447.38,229.44 C447.706,229.87 448.064,230.169 448.454,230.339 C448.806,230.508 449.177,230.593 449.568,230.593 C450.023,230.593 450.368,230.43 450.603,230.104 C450.824,229.779 450.935,229.356 450.935,228.835 C450.935,228.223 450.772,227.696 450.447,227.253 C450.121,226.836 449.77,226.537 449.392,226.354 C449.014,226.185 448.637,226.1 448.259,226.1 M448.923,225.593 C450.329,225.593 451.501,225.866 452.439,226.413 C453.389,226.96 453.865,227.604 453.865,228.347 C453.865,229.141 453.376,229.792 452.4,230.3 C451.423,230.834 450.264,231.1 448.923,231.1 C447.543,231.1 446.371,230.827 445.408,230.28 C444.444,229.733 443.962,229.089 443.962,228.347 C443.962,227.552 444.457,226.901 445.447,226.393 C446.423,225.86 447.582,225.593 448.923,225.593"/>
<path class="Note" d="M373.702,228.6 C373.233,228.6 372.895,228.763 372.686,229.089 C372.452,229.401 372.335,229.824 372.335,230.358 C372.335,230.97 372.498,231.498 372.823,231.94 C373.149,232.37 373.507,232.669 373.897,232.839 C374.249,233.008 374.62,233.093 375.011,233.093 C375.466,233.093 375.811,232.93 376.046,232.604 C376.267,232.279 376.378,231.856 376.378,231.335 C376.378,230.723 376.215,230.196 375.89,229.753 C375.564,229.336 375.212,229.037 374.835,228.854 C374.457,228.685 374.08,228.6 373.702,228.6 M374.366,228.093 C375.772,228.093 376.944,228.366 377.882,228.913 C378.832,229.46 379.308,230.104 379.308,230.847 C379.308,231.641 378.819,232.292 377.843,232.8 C376.866,233.334 375.707,233.6 374.366,233.6 C372.986,233.6 371.814,233.327 370.851,232.78 C369.887,232.233 369.405,231.589 369.405,230.847 C369.405,230.052 369.9,229.401 370.89,228.893 C371.866,228.36 373.025,228.093 374.366,228.093"/>
<path class="Note" d="M341.651,226.1 C341.182,226.1 340.844,226.263 340.635,226.589 C340.401,226.901 340.284,227.324 340.284,227.858 C340.284,228.47 340.447,228.998 340.772,229.44 C341.098,229.87 341.456,230.169 341.846,230.339 C342.198,230.508 342.569,230.593 342.96,230.593 C343.415,230.593 343.76,230.43 343.995,230.104 C344.216,229.779 344.327,229.356 344.327,228.835 C344.327,228.223 344.164,227.696 343.839,227.253 C343.513,226.836 343.161,226.537 342.784,226.354 C342.406,226.185 342.029,226.1 341.651,226.1 M342.315,225.593 C343.721,225.593 344.893,225.866 345.831,226.413 C346.781,226.96 347.256,227.604 347.256,228.347 C347.256,229.141 346.768,229.792 345.792,230.3 C344.815,230.834 343.656,231.1 342.315,231.1 C340.935,231.1 339.763,230.827 338.799,230.28 C337.836,229.733 337.354,229.089 337.354,228.347 C337.354,227.552 337.849,226.901 338.839,226.393 C339.815,225.86 340.974,225.593 342.315,225.593"/>
<path class="Note" d="M330.398,224.538 C330.398,224.317 330.314,224.128 330.144,223.972 C329.975,223.802 329.78,223.718 329.558,223.718 C329.168,223.718 328.38,224.108 327.195,224.89 C325.971,225.684 325.222,226.25 324.949,226.589 C324.806,226.771 324.734,226.96 324.734,227.155 C324.734,227.377 324.819,227.565 324.988,227.722 C325.144,227.891 325.34,227.975 325.574,227.975 C325.952,227.975 326.746,227.585 327.957,226.804 C329.155,226.022 329.897,225.456 330.183,225.104 C330.327,224.935 330.398,224.746 330.398,224.538 M329.363,223.093 C330.483,223.093 331.043,223.574 331.043,224.538 C331.043,225.007 330.906,225.554 330.633,226.179 C330.359,226.791 329.994,227.259 329.539,227.585 C328.536,228.262 327.28,228.6 325.769,228.6 C324.649,228.6 324.09,228.119 324.09,227.155 C324.09,226.725 324.226,226.185 324.5,225.534 C324.76,224.909 325.125,224.434 325.593,224.108 C326.596,223.431 327.853,223.093 329.363,223.093"/>
<path class="Note" d="M288.729,221.1 C288.26,221.1 287.921,221.263 287.713,221.589 C287.479,221.901 287.361,222.324 287.361,222.858 C287.361,223.47 287.524,223.998 287.85,224.44 C288.175,224.87 288.533,225.169 288.924,225.339 C289.275,225.508 289.647,225.593 290.037,225.593 C290.493,225.593 290.838,225.43 291.072,225.104 C291.294,224.779 291.404,224.356 291.404,223.835 C291.404,223.223 291.242,222.696 290.916,222.253 C290.591,221.836 290.239,221.537 289.861,221.354 C289.484,221.185 289.106,221.1 288.729,221.1 M289.393,220.593 C290.799,220.593 291.971,220.866 292.908,221.413 C293.859,221.96 294.334,222.604 294.334,223.347 C294.334,224.141 293.846,224.792 292.869,225.3 C291.893,225.834 290.734,226.1 289.393,226.1 C288.012,226.1 286.841,225.827 285.877,225.28 C284.913,224.733 284.432,224.089 284.432,223.347 C284.432,222.552 284.927,221.901 285.916,221.393 C286.893,220.86 288.052,220.593 289.393,220.593"/>
<path class="Note" d="M214.172,221.1 C213.703,221.1 213.364,221.263 213.156,221.589 C212.922,221.901 212.804,222.324 212.804,222.858 C212.804,223.47 212.967,223.998 213.293,224.44 C213.618,224.87 213.976,225.169 214.367,225.339 C214.718,225.508 215.089,225.593 215.48,225.593 C215.936,225.593 216.281,225.43 216.515,225.104 C216.737,224.779 216.847,224.356 216.847,223.835 C216.847,223.223 216.685,222.696 216.359,222.253 C216.034,221.836 215.682,221.537 215.304,221.354 C214.927,221.185 214.549,221.1 214.172,221.1 M214.836,220.593 C216.242,220.593 217.414,220.866 218.351,221.413 C219.302,221.96 219.777,222.604 219.777,223.347 C219.777,224.141 219.289,224.792 218.312,225.3 C217.336,225.834 216.177,226.1 214.836,226.1 C213.455,226.1 212.284,225.827 211.32,225.28 C210.356,224.733 209.875,224.089 209.875,223.347 C209.875,222.552 210.369,221.901 211.359,221.393 C212.336,220.86 213.494,220.593 214.836,220.593"/>
<path class="Note" d="M182.12,226.1 C181.652,226.1 181.313,226.263 181.105,226.589 C180.87,226.901 180.753,227.324 180.753,227.858 C180.753,228.47 180.916,228.998 181.242,229.44 C181.567,229.87 181.925,230.169 182.316,230.339 C182.667,230.508 183.038,230.593 183.429,230.593 C183.885,230.593 184.23,230.43 184.464,230.104 C184.686,229.779 184.796,229.356 184.796,228.835 C184.796,228.223 184.634,227.696 184.308,227.253 C183.982,226.836 183.631,226.537 183.253,226.354 C182.876,226.185 182.498,226.1 182.12,226.1 M182.785,225.593 C184.191,225.593 185.363,225.866 186.3,226.413 C187.251,226.96 187.726,227.604 187.726,228.347 C187.726,229.141 187.238,229.792 186.261,230.3 C185.285,230.834 184.126,231.1 182.785,231.1 C181.404,231.1 180.232,230.827 179.269,230.28 C178.305,229.733 177.824,229.089 177.824,228.347 C177.824,227.552 178.318,226.901 179.308,226.393 C180.285,225.86 181.443,225.593 182.785,225.593"/>
<path class="Note" d="M170.868,229.538 C170.868,229.317 170.783,229.128 170.614,228.972 C170.444,228.802 170.249,228.718 170.028,228.718 C169.637,228.718 168.849,229.108 167.664,229.89 C166.441,230.684 165.692,231.25 165.418,231.589 C165.275,231.771 165.204,231.96 165.204,232.155 C165.204,232.377 165.288,232.565 165.457,232.722 C165.614,232.891 165.809,232.975 166.043,232.975 C166.421,232.975 167.215,232.585 168.426,231.804 C169.624,231.022 170.366,230.456 170.653,230.104 C170.796,229.935 170.868,229.746 170.868,229.538 M169.832,228.093 C170.952,228.093 171.512,228.574 171.512,229.538 C171.512,230.007 171.375,230.554 171.102,231.179 C170.829,231.791 170.464,232.259 170.008,232.585 C169.006,233.262 167.749,233.6 166.239,233.6 C165.119,233.6 164.559,233.119 164.559,232.155 C164.559,231.725 164.696,231.185 164.969,230.534 C165.23,229.909 165.594,229.434 166.063,229.108 C167.066,228.431 168.322,228.093 169.832,228.093"/>
<path class="Note" d="M129.198,218.6 C128.729,218.6 128.391,218.763 128.182,219.089 C127.948,219.401 127.831,219.824 127.831,220.358 C127.831,220.97 127.994,221.498 128.319,221.94 C128.645,222.37 129.003,222.669 129.393,222.839 C129.745,223.008 130.116,223.093 130.507,223.093 C130.962,223.093 131.307,222.93 131.542,222.604 C131.763,222.279 131.874,221.856 131.874,221.335 C131.874,220.723 131.711,220.196 131.386,219.753 C131.06,219.336 130.708,219.037 130.331,218.854 C129.953,218.685 129.576,218.6 129.198,218.6 M129.862,218.093 C131.268,218.093 132.44,218.366 133.378,218.913 C134.328,219.46 134.804,220.104 134.804,220.847 C134.804,221.641 134.315,222.292 133.339,222.8 C132.362,223.334 131.203,223.6 129.862,223.6 C128.482,223.6 127.31,223.327 126.346,222.78 C125.383,222.233 124.901,221.589 124.901,220.847 C124.901,220.052 125.396,219.401 126.386,218.893 C127.362,218.36 128.521,218.093 129.862,218.093"/>
<path class="Note" d="M57.1808,221.1 C56.7121,221.1 56.3735,221.263 56.1652,221.589 C55.9308,221.901 55.8137,222.324 55.8137,222.858 C55.8137,223.47 55.9764,223.998 56.3019,224.44 C56.6275,224.87 56.9855,225.169 57.3762,225.339 C57.7277,225.508 58.0988,225.593 58.4894,225.593 C58.9452,225.593 59.2902,225.43 59.5246,225.104 C59.7459,224.779 59.8566,224.356 59.8566,223.835 C59.8566,223.223 59.6939,222.696 59.3683,222.253 C59.0428,221.836 58.6913,221.537 58.3137,221.354 C57.936,221.185 57.5584,221.1 57.1808,221.1 M57.8449,220.593 C59.2512,220.593 60.423,220.866 61.3605,221.413 C62.311,221.96 62.7863,222.604 62.7863,223.347 C62.7863,224.141 62.298,224.792 61.3215,225.3 C60.3449,225.834 59.186,226.1 57.8449,226.1 C56.4647,226.1 55.2928,225.827 54.3293,225.28 C53.3657,224.733 52.884,224.089 52.884,223.347 C52.884,222.552 53.3788,221.901 54.3683,221.393 C55.3449,220.86 56.5038,220.593 57.8449,220.593"/>
<path class="Note" d="M547.961,131.1 C547.493,131.1 547.154,131.263 546.946,131.589 C546.711,131.901 546.594,132.324 546.594,132.858 C546.594,133.47 546.757,133.998 547.082,134.44 C547.408,134.87 547.766,135.169 548.157,135.339 C548.508,135.508 548.879,135.593 549.27,135.593 C549.726,135.593 550.071,135.43 550.305,135.104 C550.526,134.779 550.637,134.356 550.637,133.835 C550.637,133.223 550.474,132.695 550.149,132.253 C549.823,131.836 549.472,131.537 549.094,131.354 C548.716,131.185 548.339,131.1 547.961,131.1 M548.625,130.593 C550.032,130.593 551.203,130.866 552.141,131.413 C553.091,131.96 553.567,132.604 553.567,133.347 C553.567,134.141 553.078,134.792 552.102,135.3 C551.125,135.833 549.966,136.1 548.625,136.1 C547.245,136.1 546.073,135.827 545.11,135.28 C544.146,134.733 543.664,134.089 543.664,133.347 C543.664,132.552 544.159,131.901 545.149,131.393 C546.125,130.86 547.284,130.593 548.625,130.593"/>
<path class="Note" d="M538.347,132.038 C538.347,131.817 538.262,131.628 538.093,131.472 C537.924,131.302 537.729,131.218 537.507,131.218 C537.117,131.218 536.329,131.608 535.144,132.389 C533.92,133.184 533.171,133.75 532.898,134.089 C532.755,134.271 532.683,134.46 532.683,134.655 C532.683,134.876 532.768,135.065 532.937,135.222 C533.093,135.391 533.288,135.475 533.523,135.475 C533.9,135.475 534.695,135.085 535.906,134.304 C537.104,133.522 537.846,132.956 538.132,132.604 C538.275,132.435 538.347,132.246 538.347,132.038 M537.312,130.593 C538.432,130.593 538.992,131.074 538.992,132.038 C538.992,132.507 538.855,133.054 538.581,133.679 C538.308,134.291 537.943,134.759 537.488,135.085 C536.485,135.762 535.229,136.1 533.718,136.1 C532.598,136.1 532.038,135.619 532.038,134.655 C532.038,134.225 532.175,133.685 532.449,133.034 C532.709,132.409 533.074,131.934 533.542,131.608 C534.545,130.931 535.801,130.593 537.312,130.593"/>
<path class="Note" d="M500.938,133.6 C500.469,133.6 500.131,133.763 499.922,134.089 C499.688,134.401 499.571,134.824 499.571,135.358 C499.571,135.97 499.734,136.498 500.059,136.94 C500.385,137.37 500.743,137.669 501.133,137.839 C501.485,138.008 501.856,138.093 502.247,138.093 C502.702,138.093 503.047,137.93 503.282,137.604 C503.503,137.279 503.614,136.856 503.614,136.335 C503.614,135.723 503.451,135.195 503.126,134.753 C502.8,134.336 502.448,134.037 502.071,133.854 C501.693,133.685 501.316,133.6 500.938,133.6 M501.602,133.093 C503.008,133.093 504.18,133.366 505.118,133.913 C506.068,134.46 506.544,135.104 506.544,135.847 C506.544,136.641 506.055,137.292 505.079,137.8 C504.102,138.333 502.943,138.6 501.602,138.6 C500.222,138.6 499.05,138.327 498.086,137.78 C497.123,137.233 496.641,136.589 496.641,135.847 C496.641,135.052 497.136,134.401 498.126,133.893 C499.102,133.36 500.261,133.093 501.602,133.093"/>
<path class="Note" d="M434.902,128.6 C434.433,128.6 434.095,128.763 433.886,129.089 C433.652,129.401 433.535,129.824 433.535,130.358 C433.535,130.97 433.698,131.498 434.023,131.94 C434.349,132.37 434.707,132.669 435.097,132.839 C435.449,133.008 435.82,133.093 436.211,133.093 C436.666,133.093 437.011,132.93 437.246,132.604 C437.467,132.279 437.578,131.856 437.578,131.335 C437.578,130.723 437.415,130.195 437.09,129.753 C436.764,129.336 436.413,129.037 436.035,128.854 C435.657,128.685 435.28,128.6 434.902,128.6 M435.566,128.093 C436.972,128.093 438.144,128.366 439.082,128.913 C440.032,129.46 440.508,130.104 440.508,130.847 C440.508,131.641 440.019,132.292 439.043,132.8 C438.066,133.333 436.907,133.6 435.566,133.6 C434.186,133.6 433.014,133.327 432.051,132.78 C431.087,132.233 430.605,131.589 430.605,130.847 C430.605,130.052 431.1,129.401 432.09,128.893 C433.066,128.36 434.225,128.093 435.566,128.093"/>
<path class="Note" d="M405.473,126.1 C405.004,126.1 404.666,126.263 404.457,126.589 C404.223,126.901 404.106,127.324 404.106,127.858 C404.106,128.47 404.269,128.998 404.594,129.44 C404.92,129.87 405.278,130.169 405.668,130.339 C406.02,130.508 406.391,130.593 406.782,130.593 C407.237,130.593 407.582,130.43 407.817,130.104 C408.038,129.779 408.149,129.356 408.149,128.835 C408.149,128.223 407.986,127.695 407.66,127.253 C407.335,126.836 406.983,126.537 406.606,126.354 C406.228,126.185 405.851,126.1 405.473,126.1 M406.137,125.593 C407.543,125.593 408.715,125.866 409.653,126.413 C410.603,126.96 411.078,127.604 411.078,128.347 C411.078,129.141 410.59,129.792 409.614,130.3 C408.637,130.833 407.478,131.1 406.137,131.1 C404.757,131.1 403.585,130.827 402.621,130.28 C401.658,129.733 401.176,129.089 401.176,128.347 C401.176,127.552 401.671,126.901 402.66,126.393 C403.637,125.86 404.796,125.593 406.137,125.593"/>
<path class="Note" d="M395.859,124.538 C395.859,124.317 395.774,124.128 395.605,123.972 C395.436,123.802 395.24,123.718 395.019,123.718 C394.628,123.718 393.84,124.108 392.656,124.889 C391.432,125.684 390.683,126.25 390.409,126.589 C390.266,126.771 390.195,126.96 390.195,127.155 C390.195,127.376 390.279,127.565 390.449,127.722 C390.605,127.891 390.8,127.975 391.034,127.975 C391.412,127.975 392.206,127.585 393.417,126.804 C394.615,126.022 395.357,125.456 395.644,125.104 C395.787,124.935 395.859,124.746 395.859,124.538 M394.824,123.093 C395.943,123.093 396.503,123.574 396.503,124.538 C396.503,125.007 396.367,125.554 396.093,126.179 C395.82,126.791 395.455,127.259 394.999,127.585 C393.997,128.262 392.74,128.6 391.23,128.6 C390.11,128.6 389.55,128.119 389.55,127.155 C389.55,126.725 389.687,126.185 389.96,125.534 C390.221,124.909 390.585,124.434 391.054,124.108 C392.057,123.431 393.313,123.093 394.824,123.093"/>
<path class="Note" d="M358.45,123.6 C357.981,123.6 357.642,123.763 357.434,124.089 C357.2,124.401 357.083,124.824 357.083,125.358 C357.083,125.97 357.245,126.498 357.571,126.94 C357.896,127.37 358.254,127.669 358.645,127.839 C358.997,128.008 359.368,128.093 359.758,128.093 C360.214,128.093 360.559,127.93 360.793,127.604 C361.015,127.279 361.125,126.856 361.125,126.335 C361.125,125.723 360.963,125.195 360.637,124.753 C360.312,124.336 359.96,124.037 359.583,123.854 C359.205,123.685 358.827,123.6 358.45,123.6 M359.114,123.093 C360.52,123.093 361.692,123.366 362.629,123.913 C363.58,124.46 364.055,125.104 364.055,125.847 C364.055,126.641 363.567,127.292 362.59,127.8 C361.614,128.333 360.455,128.6 359.114,128.6 C357.734,128.6 356.562,128.327 355.598,127.78 C354.635,127.233 354.153,126.589 354.153,125.847 C354.153,125.052 354.648,124.401 355.637,123.893 C356.614,123.36 357.773,123.093 359.114,123.093"/>
<path class="Note" d="M292.414,126.1 C291.945,126.1 291.606,126.263 291.398,126.589 C291.164,126.901 291.047,127.324 291.047,127.858 C291.047,128.47 291.209,128.998 291.535,129.44 C291.86,129.87 292.218,130.169 292.609,130.339 C292.961,130.508 293.332,130.593 293.722,130.593 C294.178,130.593 294.523,130.43 294.758,130.104 C294.979,129.779 295.09,129.356 295.09,128.835 C295.09,128.223 294.927,127.695 294.601,127.253 C294.276,126.836 293.924,126.537 293.547,126.354 C293.169,126.185 292.791,126.1 292.414,126.1 M293.078,125.593 C294.484,125.593 295.656,125.866 296.593,126.413 C297.544,126.96 298.019,127.604 298.019,128.347 C298.019,129.141 297.531,129.792 296.554,130.3 C295.578,130.833 294.419,131.1 293.078,131.1 C291.698,131.1 290.526,130.827 289.562,130.28 C288.599,129.733 288.117,129.089 288.117,128.347 C288.117,127.552 288.612,126.901 289.601,126.393 C290.578,125.86 291.737,125.593 293.078,125.593"/>
<path class="Note" d="M262.985,123.6 C262.516,123.6 262.177,123.763 261.969,124.089 C261.735,124.401 261.617,124.824 261.617,125.358 C261.617,125.97 261.78,126.498 262.106,126.94 C262.431,127.37 262.789,127.669 263.18,127.839 C263.531,128.008 263.903,128.093 264.293,128.093 C264.749,128.093 265.094,127.93 265.328,127.604 C265.55,127.279 265.66,126.856 265.66,126.335 C265.66,125.723 265.498,125.195 265.172,124.753 C264.847,124.336 264.495,124.037 264.117,123.854 C263.74,123.685 263.362,123.6 262.985,123.6 M263.649,123.093 C265.055,123.093 266.227,123.366 267.164,123.913 C268.115,124.46 268.59,125.104 268.59,125.847 C268.59,126.641 268.102,127.292 267.125,127.8 C266.149,128.333 264.99,128.6 263.649,128.6 C262.268,128.6 261.097,128.327 260.133,127.78 C259.169,127.233 258.688,126.589 258.688,125.847 C258.688,125.052 259.183,124.401 260.172,123.893 C261.149,123.36 262.308,123.093 263.649,123.093"/>
<path class="Note" d="M253.37,122.038 C253.37,121.817 253.286,121.628 253.116,121.472 C252.947,121.302 252.752,121.218 252.531,121.218 C252.14,121.218 251.352,121.608 250.167,122.389 C248.943,123.184 248.195,123.75 247.921,124.089 C247.778,124.271 247.706,124.46 247.706,124.655 C247.706,124.876 247.791,125.065 247.96,125.222 C248.116,125.391 248.312,125.475 248.546,125.475 C248.924,125.475 249.718,125.085 250.929,124.304 C252.127,123.522 252.869,122.956 253.156,122.604 C253.299,122.435 253.37,122.246 253.37,122.038 M252.335,120.593 C253.455,120.593 254.015,121.074 254.015,122.038 C254.015,122.507 253.878,123.054 253.605,123.679 C253.331,124.291 252.967,124.759 252.511,125.085 C251.508,125.762 250.252,126.1 248.741,126.1 C247.622,126.1 247.062,125.619 247.062,124.655 C247.062,124.225 247.199,123.685 247.472,123.034 C247.732,122.409 248.097,121.934 248.566,121.608 C249.568,120.931 250.825,120.593 252.335,120.593"/>
<path class="Note" d="M215.961,118.6 C215.493,118.6 215.154,118.763 214.946,119.089 C214.711,119.401 214.594,119.824 214.594,120.358 C214.594,120.97 214.757,121.498 215.082,121.94 C215.408,122.37 215.766,122.669 216.157,122.839 C216.508,123.008 216.879,123.093 217.27,123.093 C217.726,123.093 218.071,122.93 218.305,122.604 C218.526,122.279 218.637,121.856 218.637,121.335 C218.637,120.723 218.474,120.195 218.149,119.753 C217.823,119.336 217.472,119.037 217.094,118.854 C216.717,118.685 216.339,118.6 215.961,118.6 M216.625,118.093 C218.032,118.093 219.204,118.366 220.141,118.913 C221.092,119.46 221.567,120.104 221.567,120.847 C221.567,121.641 221.079,122.292 220.102,122.8 C219.125,123.333 217.967,123.6 216.625,123.6 C215.245,123.6 214.073,123.327 213.11,122.78 C212.146,122.233 211.665,121.589 211.665,120.847 C211.665,120.052 212.159,119.401 213.149,118.893 C214.125,118.36 215.284,118.093 216.625,118.093"/>
<path class="Note" d="M149.925,123.6 C149.457,123.6 149.118,123.763 148.91,124.089 C148.675,124.401 148.558,124.824 148.558,125.358 C148.558,125.97 148.721,126.498 149.047,126.94 C149.372,127.37 149.73,127.669 150.121,127.839 C150.472,128.008 150.843,128.093 151.234,128.093 C151.69,128.093 152.035,127.93 152.269,127.604 C152.491,127.279 152.601,126.856 152.601,126.335 C152.601,125.723 152.438,125.195 152.113,124.753 C151.787,124.336 151.436,124.037 151.058,123.854 C150.681,123.685 150.303,123.6 149.925,123.6 M150.589,123.093 C151.996,123.093 153.168,123.366 154.105,123.913 C155.056,124.46 155.531,125.104 155.531,125.847 C155.531,126.641 155.043,127.292 154.066,127.8 C153.089,128.333 151.931,128.6 150.589,128.6 C149.209,128.6 148.037,128.327 147.074,127.78 C146.11,127.233 145.629,126.589 145.629,125.847 C145.629,125.052 146.123,124.401 147.113,123.893 C148.089,123.36 149.248,123.093 150.589,123.093"/>
<path class="Note" d="M120.496,126.1 C120.028,126.1 119.689,126.263 119.481,126.589 C119.246,126.901 119.129,127.324 119.129,127.858 C119.129,128.47 119.292,128.998 119.617,129.44 C119.943,129.87 120.301,130.169 120.692,130.339 C121.043,130.508 121.414,130.593 121.805,130.593 C122.261,130.593 122.606,130.43 122.84,130.104 C123.061,129.779 123.172,129.356 123.172,128.835 C123.172,128.223 123.009,127.695 122.684,127.253 C122.358,126.836 122.007,126.537 121.629,126.354 C121.251,126.185 120.874,126.1 120.496,126.1 M121.16,125.593 C122.567,125.593 123.738,125.866 124.676,126.413 C125.626,126.96 126.102,127.604 126.102,128.347 C126.102,129.141 125.613,129.792 124.637,130.3 C123.66,130.833 122.501,131.1 121.16,131.1 C119.78,131.1 118.608,130.827 117.645,130.28 C116.681,129.733 116.199,129.089 116.199,128.347 C116.199,127.552 116.694,126.901 117.684,126.393 C118.66,125.86 119.819,125.593 121.16,125.593"/>
<path class="Note" d="M110.882,124.538 C110.882,124.317 110.797,124.128 110.628,123.972 C110.459,123.802 110.264,123.718 110.042,123.718 C109.652,123.718 108.864,124.108 107.679,124.889 C106.455,125.684 105.706,126.25 105.433,126.589 C105.29,126.771 105.218,126.96 105.218,127.155 C105.218,127.376 105.303,127.565 105.472,127.722 C105.628,127.891 105.823,127.975 106.058,127.975 C106.435,127.975 107.23,127.585 108.441,126.804 C109.639,126.022 110.381,125.456 110.667,125.104 C110.81,124.935 110.882,124.746 110.882,124.538 M109.847,123.093 C110.967,123.093 111.527,123.574 111.527,124.538 C111.527,125.007 111.39,125.554 111.116,126.179 C110.843,126.791 110.478,127.259 110.023,127.585 C109.02,128.262 107.764,128.6 106.253,128.6 C105.133,128.6 104.573,128.119 104.573,127.155 C104.573,126.725 104.71,126.185 104.984,125.534 C105.244,124.909 105.609,124.434 106.077,124.108 C107.08,123.431 108.336,123.093 109.847,123.093"/>
<path class="Note" d="M76.0129,123.6 C75.5441,123.6 75.2056,123.763 74.9973,124.089 C74.7629,124.401 74.6457,124.824 74.6457,125.358 C74.6457,125.97 74.8085,126.498 75.134,126.94 C75.4595,127.37 75.8176,127.669 76.2082,127.839 C76.5598,128.008 76.9309,128.093 77.3215,128.093 C77.7772,128.093 78.1223,127.93 78.3566,127.604 C78.578,127.279 78.6887,126.856 78.6887,126.335 C78.6887,125.723 78.5259,125.195 78.2004,124.753 C77.8749,124.336 77.5233,124.037 77.1457,123.854 C76.7681,123.685 76.3905,123.6 76.0129,123.6 M76.6769,123.093 C78.0832,123.093 79.2551,123.366 80.1926,123.913 C81.1431,124.46 81.6184,125.104 81.6184,125.847 C81.6184,126.641 81.1301,127.292 80.1535,127.8 C79.1769,128.333 78.0181,128.6 76.6769,128.6 C75.2967,128.6 74.1249,128.327 73.1613,127.78 C72.1978,127.233 71.716,126.589 71.716,125.847 C71.716,125.052 72.2108,124.401 73.2004,123.893 C74.1769,123.36 75.3358,123.093 76.6769,123.093"/>
<path class="Clef" d="M38.8902,218.229 C38.8902,218.229 38.9293,218.229 39.0074,218.229 C39.0595,218.216 39.105,218.21 39.1441,218.21 C40.6024,218.21 41.8004,218.724 42.7379,219.753 C43.6754,220.768 44.1441,221.953 44.1441,223.308 C44.1441,224.987 43.4475,226.354 42.0543,227.409 C41.6897,227.696 41.2144,227.93 40.6285,228.112 C40.6936,228.959 40.7261,229.642 40.7261,230.163 C40.7261,230.267 40.7131,230.645 40.6871,231.296 C40.635,232.507 40.2183,233.555 39.4371,234.44 C38.6819,235.313 37.7444,235.749 36.6246,235.749 C35.5699,235.749 34.6715,235.378 33.9293,234.636 C33.1871,233.88 32.816,232.969 32.816,231.901 C32.816,231.341 33.0308,230.866 33.4605,230.475 C33.9032,230.085 34.4175,229.89 35.0035,229.89 C35.5243,229.89 35.9605,230.091 36.3121,230.495 C36.6767,230.873 36.859,231.341 36.859,231.901 C36.859,232.409 36.6767,232.845 36.3121,233.21 C35.9475,233.574 35.5113,233.757 35.0035,233.757 C34.7951,233.757 34.5933,233.718 34.398,233.64 C34.9709,234.486 35.7326,234.909 36.6832,234.909 C37.5816,234.909 38.3173,234.544 38.8902,233.815 C39.4892,233.06 39.8147,232.181 39.8668,231.179 C39.8928,230.554 39.9058,230.196 39.9058,230.104 C39.9058,229.375 39.8798,228.776 39.8277,228.308 C39.1767,228.412 38.5972,228.464 38.0894,228.464 C36.2795,228.464 34.7366,227.748 33.4605,226.315 C32.2105,224.87 31.5855,223.151 31.5855,221.159 C31.5855,220.742 31.6246,220.319 31.7027,219.89 C31.7808,219.538 31.8785,219.154 31.9957,218.737 C32.0608,218.503 32.2366,218.125 32.523,217.604 C32.6272,217.448 32.7444,217.253 32.8746,217.018 C33.0048,216.784 33.0959,216.628 33.148,216.55 C33.2782,216.289 33.5321,215.938 33.9097,215.495 C34.0139,215.378 34.1213,215.248 34.232,215.104 C34.3427,214.961 34.4371,214.844 34.5152,214.753 C34.5933,214.662 34.6519,214.59 34.691,214.538 C34.73,214.486 35.023,214.141 35.5699,213.503 C35.7001,213.373 35.8271,213.233 35.9507,213.083 C36.0744,212.933 36.1754,212.816 36.2535,212.731 C36.3316,212.647 36.3902,212.585 36.4293,212.546 C35.9605,210.996 35.6675,209.759 35.5504,208.835 C35.4592,208.093 35.4136,207.077 35.4136,205.788 C35.4136,204.655 35.6741,203.594 36.1949,202.604 C36.7027,201.576 37.4123,200.736 38.3238,200.085 C38.3889,200.046 38.454,200.026 38.5191,200.026 C38.6103,200.026 38.6754,200.046 38.7144,200.085 C39.4175,200.931 40.023,202.031 40.5308,203.386 C41.0517,204.74 41.3121,205.97 41.3121,207.077 C41.3121,208.327 41.0126,209.499 40.4136,210.593 C39.7366,211.752 38.8642,212.949 37.7965,214.186 C38.0699,215.046 38.4345,216.393 38.8902,218.229 M40.5504,227.311 C41.2274,227.064 41.7548,226.641 42.1324,226.042 C42.5491,225.469 42.7574,224.824 42.7574,224.108 C42.7574,223.184 42.4449,222.363 41.8199,221.647 C41.1819,220.905 40.3681,220.488 39.3785,220.397 C39.9384,223.145 40.329,225.449 40.5504,227.311 M32.9918,222.8 C32.9918,224.089 33.5126,225.222 34.5543,226.198 C35.622,227.149 36.8199,227.624 38.148,227.624 C38.6949,227.624 39.2287,227.585 39.7496,227.507 C39.5412,225.528 39.1311,223.158 38.5191,220.397 C37.7769,220.475 37.1845,220.736 36.7418,221.179 C36.3121,221.634 36.0972,222.149 36.0972,222.722 C36.0972,223.711 36.6246,224.512 37.6793,225.124 C37.7704,225.215 37.816,225.313 37.816,225.417 C37.816,225.521 37.7704,225.619 37.6793,225.71 C37.6011,225.801 37.5035,225.847 37.3863,225.847 C37.3733,225.847 37.3147,225.834 37.2105,225.808 C36.4683,225.404 35.8954,224.883 35.4918,224.245 C35.1142,223.568 34.9254,222.884 34.9254,222.194 C34.9254,221.296 35.2053,220.482 35.7652,219.753 C36.3511,219.024 37.1129,218.555 38.0504,218.347 C37.6858,216.888 37.3863,215.749 37.1519,214.929 C36.9436,215.163 36.6929,215.446 36.4,215.778 C36.107,216.11 35.9345,216.309 35.8824,216.374 C35.4136,216.986 35.0556,217.461 34.8082,217.8 C34.3655,218.412 34.0399,218.939 33.8316,219.382 C33.6103,219.877 33.4149,220.417 33.2457,221.003 C33.0764,221.563 32.9918,222.162 32.9918,222.8 M39.5152,202.936 C38.5386,203.418 37.7704,204.108 37.2105,205.007 C36.6376,205.931 36.3511,206.927 36.3511,207.995 C36.3511,208.933 36.5855,210.196 37.0543,211.784 C37.9918,210.651 38.6949,209.603 39.1636,208.64 C39.6584,207.624 39.9058,206.563 39.9058,205.456 C39.9058,204.623 39.7756,203.783 39.5152,202.936"/>
<path class="Clef" d="M38.8902,123.229 C38.8902,123.229 38.9293,123.229 39.0074,123.229 C39.0595,123.216 39.105,123.21 39.1441,123.21 C40.6024,123.21 41.8004,123.724 42.7379,124.753 C43.6754,125.768 44.1441,126.953 44.1441,128.307 C44.1441,129.987 43.4475,131.354 42.0543,132.409 C41.6897,132.695 41.2144,132.93 40.6285,133.112 C40.6936,133.958 40.7261,134.642 40.7261,135.163 C40.7261,135.267 40.7131,135.645 40.6871,136.296 C40.635,137.507 40.2183,138.555 39.4371,139.44 C38.6819,140.313 37.7444,140.749 36.6246,140.749 C35.5699,140.749 34.6715,140.378 33.9293,139.636 C33.1871,138.88 32.816,137.969 32.816,136.901 C32.816,136.341 33.0308,135.866 33.4605,135.475 C33.9032,135.085 34.4175,134.889 35.0035,134.889 C35.5243,134.889 35.9605,135.091 36.3121,135.495 C36.6767,135.873 36.859,136.341 36.859,136.901 C36.859,137.409 36.6767,137.845 36.3121,138.21 C35.9475,138.574 35.5113,138.757 35.0035,138.757 C34.7951,138.757 34.5933,138.718 34.398,138.639 C34.9709,139.486 35.7326,139.909 36.6832,139.909 C37.5816,139.909 38.3173,139.544 38.8902,138.815 C39.4892,138.06 39.8147,137.181 39.8668,136.179 C39.8928,135.554 39.9058,135.195 39.9058,135.104 C39.9058,134.375 39.8798,133.776 39.8277,133.307 C39.1767,133.412 38.5972,133.464 38.0894,133.464 C36.2795,133.464 34.7366,132.748 33.4605,131.315 C32.2105,129.87 31.5855,128.151 31.5855,126.159 C31.5855,125.742 31.6246,125.319 31.7027,124.889 C31.7808,124.538 31.8785,124.154 31.9957,123.737 C32.0608,123.503 32.2366,123.125 32.523,122.604 C32.6272,122.448 32.7444,122.253 32.8746,122.018 C33.0048,121.784 33.0959,121.628 33.148,121.55 C33.2782,121.289 33.5321,120.938 33.9097,120.495 C34.0139,120.378 34.1213,120.248 34.232,120.104 C34.3427,119.961 34.4371,119.844 34.5152,119.753 C34.5933,119.662 34.6519,119.59 34.691,119.538 C34.73,119.486 35.023,119.141 35.5699,118.503 C35.7001,118.373 35.8271,118.233 35.9507,118.083 C36.0744,117.933 36.1754,117.816 36.2535,117.731 C36.3316,117.647 36.3902,117.585 36.4293,117.546 C35.9605,115.996 35.6675,114.759 35.5504,113.835 C35.4592,113.093 35.4136,112.077 35.4136,110.788 C35.4136,109.655 35.6741,108.594 36.1949,107.604 C36.7027,106.576 37.4123,105.736 38.3238,105.085 C38.3889,105.046 38.454,105.026 38.5191,105.026 C38.6103,105.026 38.6754,105.046 38.7144,105.085 C39.4175,105.931 40.023,107.031 40.5308,108.386 C41.0517,109.74 41.3121,110.97 41.3121,112.077 C41.3121,113.327 41.0126,114.499 40.4136,115.593 C39.7366,116.751 38.8642,117.949 37.7965,119.186 C38.0699,120.046 38.4345,121.393 38.8902,123.229 M40.5504,132.311 C41.2274,132.064 41.7548,131.641 42.1324,131.042 C42.5491,130.469 42.7574,129.824 42.7574,129.108 C42.7574,128.184 42.4449,127.363 41.8199,126.647 C41.1819,125.905 40.3681,125.488 39.3785,125.397 C39.9384,128.145 40.329,130.449 40.5504,132.311 M32.9918,127.8 C32.9918,129.089 33.5126,130.222 34.5543,131.198 C35.622,132.149 36.8199,132.624 38.148,132.624 C38.6949,132.624 39.2287,132.585 39.7496,132.507 C39.5412,130.528 39.1311,128.158 38.5191,125.397 C37.7769,125.475 37.1845,125.736 36.7418,126.179 C36.3121,126.634 36.0972,127.149 36.0972,127.722 C36.0972,128.711 36.6246,129.512 37.6793,130.124 C37.7704,130.215 37.816,130.313 37.816,130.417 C37.816,130.521 37.7704,130.619 37.6793,130.71 C37.6011,130.801 37.5035,130.847 37.3863,130.847 C37.3733,130.847 37.3147,130.833 37.2105,130.807 C36.4683,130.404 35.8954,129.883 35.4918,129.245 C35.1142,128.568 34.9254,127.884 34.9254,127.194 C34.9254,126.296 35.2053,125.482 35.7652,124.753 C36.3511,124.024 37.1129,123.555 38.0504,123.347 C37.6858,121.888 37.3863,120.749 37.1519,119.929 C36.9436,120.163 36.6929,120.446 36.4,120.778 C36.107,121.11 35.9345,121.309 35.8824,121.374 C35.4136,121.986 35.0556,122.461 34.8082,122.8 C34.3655,123.412 34.0399,123.939 33.8316,124.382 C33.6103,124.876 33.4149,125.417 33.2457,126.003 C33.0764,126.563 32.9918,127.162 32.9918,127.8 M39.5152,107.936 C38.5386,108.418 37.7704,109.108 37.2105,110.007 C36.6376,110.931 36.3511,111.927 36.3511,112.995 C36.3511,113.932 36.5855,115.195 37.0543,116.784 C37.9918,115.651 38.6949,114.603 39.1636,113.639 C39.6584,112.624 39.9058,111.563 39.9058,110.456 C39.9058,109.623 39.7756,108.783 39.5152,107.936"/>
<path class="TimeSig" d="M52.7144,113.6 C52.8967,113.6 53.0855,113.555 53.2808,113.464 C53.4762,113.373 53.5933,113.327 53.6324,113.327 C53.7756,113.327 53.8603,113.438 53.8863,113.659 L53.8863,121.003 C53.8863,121.524 54.023,121.966 54.2965,122.331 C54.5829,122.695 54.9345,122.878 55.3512,122.878 C55.5074,122.878 55.5855,122.956 55.5855,123.112 C55.5855,123.268 55.5074,123.347 55.3512,123.347 C54.9735,123.347 54.5308,123.307 54.023,123.229 C53.4631,123.138 53.0334,123.093 52.734,123.093 C52.4084,123.093 51.9657,123.138 51.4058,123.229 C50.8199,123.307 50.3837,123.347 50.0972,123.347 C49.941,123.347 49.8629,123.268 49.8629,123.112 C49.8629,122.956 49.941,122.878 50.0972,122.878 C50.5139,122.878 50.8655,122.695 51.1519,122.331 C51.4254,121.966 51.5621,121.524 51.5621,121.003 L51.5621,116.1 C51.5621,116.035 51.523,115.951 51.4449,115.847 C51.3928,115.768 51.3147,115.729 51.2105,115.729 C51.1194,115.729 51.0543,115.775 51.0152,115.866 L49.7457,118.581 C49.6936,118.711 49.5959,118.776 49.4527,118.776 C49.3876,118.776 49.329,118.75 49.2769,118.698 C49.2118,118.633 49.1793,118.561 49.1793,118.483 C49.1793,118.47 49.1923,118.425 49.2183,118.347 L51.5621,113.347 C51.5881,113.307 51.6207,113.288 51.6597,113.288 C51.6988,113.288 51.842,113.34 52.0894,113.444 C52.3368,113.548 52.5452,113.6 52.7144,113.6"/>
<path class="TimeSig" d="M60.1324,123.347 C59.7418,123.347 59.3902,123.275 59.0777,123.132 C58.7652,122.988 58.5439,122.839 58.4137,122.682 C58.2444,122.487 58.0751,122.337 57.9058,122.233 C57.6975,122.09 57.4827,122.018 57.2613,122.018 C56.9228,122.018 56.6428,122.123 56.4215,122.331 C56.1871,122.526 56.0569,122.793 56.0308,123.132 C56.0048,123.275 55.9267,123.347 55.7965,123.347 C55.6402,123.347 55.5621,123.275 55.5621,123.132 C55.5621,122.624 55.6793,122.168 55.9137,121.764 C56.148,121.348 56.4345,121.003 56.773,120.729 C57.0595,120.482 57.4371,120.182 57.9058,119.831 C57.984,119.766 58.15,119.629 58.4039,119.421 C58.6578,119.212 58.8694,119.037 59.0387,118.893 C59.3772,118.607 59.6702,118.229 59.9176,117.761 C60.1519,117.292 60.2691,116.784 60.2691,116.237 C60.2691,115.573 60.1584,115 59.9371,114.518 C59.7027,114.05 59.3446,113.815 58.8629,113.815 C58.5634,113.815 58.3225,113.88 58.1402,114.011 C57.9449,114.141 57.8472,114.317 57.8472,114.538 C57.8472,114.72 57.9644,114.948 58.1988,115.222 C58.4332,115.495 58.5504,115.723 58.5504,115.905 C58.5504,116.296 58.4137,116.628 58.1402,116.901 C57.8798,117.162 57.5608,117.292 57.1832,117.292 C56.7926,117.292 56.4605,117.155 56.1871,116.882 C55.9267,116.595 55.7965,116.27 55.7965,115.905 C55.7965,115.163 56.0959,114.551 56.6949,114.069 C57.2939,113.587 58.0165,113.347 58.8629,113.347 C59.8655,113.347 60.7379,113.62 61.4801,114.167 C62.2222,114.688 62.5933,115.378 62.5933,116.237 C62.5933,116.823 62.4892,117.324 62.2808,117.741 C62.0855,118.184 61.7926,118.529 61.4019,118.776 C60.9592,119.063 60.5751,119.284 60.2496,119.44 C59.7939,119.649 59.3381,119.844 58.8824,120.026 C58.3355,120.248 57.9124,120.456 57.6129,120.651 C57.7821,120.612 57.9579,120.593 58.1402,120.593 C58.7392,120.593 59.3642,120.788 60.0152,121.179 C60.6793,121.569 61.1936,121.764 61.5582,121.764 C61.7795,121.764 61.9553,121.725 62.0855,121.647 C62.2157,121.569 62.3004,121.485 62.3394,121.393 C62.3915,121.263 62.4371,121.172 62.4762,121.12 C62.5282,121.042 62.5933,121.003 62.6715,121.003 C62.8277,121.003 62.9058,121.081 62.9058,121.237 C62.9058,121.602 62.6454,122.044 62.1246,122.565 C61.6168,123.086 60.9527,123.347 60.1324,123.347"/>
<path class="TimeSig" d="M57.5504,127.585 C58.2014,126.869 58.5269,126.192 58.5269,125.554 C58.5269,125.02 58.2991,124.597 57.8433,124.284 C57.4006,123.972 56.8538,123.815 56.2027,123.815 C55.747,123.815 55.3824,123.958 55.109,124.245 C54.8355,124.531 54.6988,124.857 54.6988,125.222 C54.6988,125.677 54.9006,126.029 55.3043,126.276 L57.5504,127.585 M58.1558,127.917 C59.2626,128.555 59.816,129.408 59.816,130.475 C59.816,131.27 59.484,131.94 58.8199,132.487 C58.1558,133.06 57.2249,133.347 56.0269,133.347 C55.0113,133.347 54.1584,133.086 53.4683,132.565 C52.7392,132.044 52.3746,131.374 52.3746,130.554 C52.3746,130.254 52.4657,129.935 52.648,129.597 C52.8173,129.297 52.9866,129.063 53.1558,128.893 C53.234,128.789 53.4814,128.542 53.898,128.151 C53.0907,127.578 52.6806,126.869 52.6676,126.022 C52.6676,125.306 52.9866,124.675 53.6246,124.128 C54.2626,123.607 55.122,123.347 56.2027,123.347 C57.0621,123.347 57.8173,123.542 58.4683,123.932 C59.0933,124.323 59.4058,124.863 59.4058,125.554 C59.3798,126.257 58.9631,127.044 58.1558,127.917 M54.5035,128.503 C53.6962,129.219 53.2795,129.903 53.2535,130.554 C53.2535,131.218 53.5334,131.771 54.0933,132.214 C54.6272,132.656 55.2717,132.878 56.0269,132.878 C56.5608,132.878 56.9775,132.708 57.2769,132.37 C57.5894,132.057 57.7457,131.673 57.7457,131.218 C57.7457,130.658 57.5178,130.248 57.0621,129.987 L54.5035,128.503 "/>
<path class="Rest" d="M423.667,216.472 L416.558,216.472 C416.428,216.472 416.363,216.406 416.363,216.276 L416.363,213.542 C416.363,213.412 416.428,213.347 416.558,213.347 L423.667,213.347 C423.798,213.347 423.863,213.412 423.863,213.542 L423.863,216.276 C423.863,216.406 423.798,216.472 423.667,216.472"/>
<path class="Rest" d="M264.137,216.472 L257.027,216.472 C256.897,216.472 256.832,216.406 256.832,216.276 L256.832,213.542 C256.832,213.412 256.897,213.347 257.027,213.347 L264.137,213.347 C264.267,213.347 264.332,213.412 264.332,213.542 L264.332,216.276 C264.332,216.406 264.267,216.472 264.137,216.472"/>
<path class="Rest" d="M104.606,216.472 L97.4969,216.472 C97.3667,216.472 97.3016,216.406 97.3016,216.276 L97.3016,213.542 C97.3016,213.412 97.3667,213.347 97.4969,213.347 L104.606,213.347 C104.736,213.347 104.802,213.412 104.802,213.542 L104.802,216.276 C104.802,216.406 104.736,216.472 104.606,216.472"/>
<path class="Rest" d="M478.477,121.472 L471.367,121.472 C471.237,121.472 471.172,121.406 471.172,121.276 L471.172,118.542 C471.172,118.412 471.237,118.347 471.367,118.347 L478.477,118.347 C478.607,118.347 478.672,118.412 478.672,118.542 L478.672,121.276 C478.672,121.406 478.607,121.472 478.477,121.472"/>
<path class="Rest" d="M335.988,121.472 L328.879,121.472 C328.749,121.472 328.683,121.406 328.683,121.276 L328.683,118.542 C328.683,118.412 328.749,118.347 328.879,118.347 L335.988,118.347 C336.118,118.347 336.183,118.412 336.183,118.542 L336.183,121.276 C336.183,121.406 336.118,121.472 335.988,121.472"/>
<path class="Rest" d="M193.5,121.472 L186.39,121.472 C186.26,121.472 186.195,121.406 186.195,121.276 L186.195,118.542 C186.195,118.412 186.26,118.347 186.39,118.347 L193.5,118.347 C193.63,118.347 193.695,118.412 193.695,118.542 L193.695,121.276 C193.695,121.406 193.63,121.472 193.5,121.472"/>
<path class="Tempo" d="M52.1223,90.8025 C51.9303,90.6345 51.6663,90.5505 51.3543,90.5505 C50.1663,90.5505 49.2183,91.4265 49.2183,92.3625 C49.2183,92.9265 49.6743,93.2625 50.2623,93.2625 C51.2223,93.2625 52.4103,92.3625 52.4103,91.4505 L52.4103,85.3065 L52.1223,85.3065 L52.1223,90.8025 "/>
<path class="Tempo" d="M62.7738,89.3745 L56.1498,89.3745 L56.1498,88.2225 L62.7738,88.2225 L62.7738,89.3745 M62.7738,92.3025 L56.1498,92.3025 L56.1498,91.1505 L62.7738,91.1505 L62.7738,92.3025 M68.3152,86.4105 C68.2192,86.4105 68.1052,86.4305 67.9732,86.4705 C67.8412,86.5105 67.7012,86.5585 67.5532,86.6145 C67.4052,86.6705 67.3192,86.7025 67.2952,86.7105 L67.2952,86.3985 L70.3192,85.0905 L70.5232,85.0905 L70.5232,91.9305 C70.5232,92.3945 70.6032,92.6965 70.7632,92.8365 C70.9232,92.9765 71.2752,93.0505 71.8192,93.0585 L71.8192,93.3465 L67.3192,93.3465 L67.3192,93.0585 C67.9112,93.0505 68.2972,92.9725 68.4772,92.8245 C68.6572,92.6765 68.7472,92.3545 68.7472,91.8585 L68.7472,87.2385 C68.7472,86.6865 68.6032,86.4105 68.3152,86.4105 M72.8032,89.2665 C72.8032,88.0905 73.0632,87.1005 73.5832,86.2965 C74.1032,85.4925 74.7472,85.0905 75.5152,85.0905 C76.2912,85.0905 76.9372,85.4925 77.4532,86.2965 C77.9692,87.1005 78.2272,88.1025 78.2272,89.3025 C78.2272,90.5105 77.9712,91.5125 77.4592,92.3085 C76.9472,93.1045 76.3032,93.5025 75.5272,93.5025 C74.7272,93.5025 74.0732,93.1065 73.5652,92.3145 C73.0572,91.5225 72.8032,90.5065 72.8032,89.2665 M75.5272,93.1665 C75.7912,93.1665 75.9912,92.9865 76.1272,92.6265 C76.2632,92.2665 76.3312,91.6185 76.3312,90.6825 L76.3312,87.9345 C76.3312,87.0465 76.2672,86.4065 76.1392,86.0145 C76.0112,85.6225 75.7992,85.4265 75.5032,85.4265 C75.2152,85.4265 75.0092,85.6185 74.8852,86.0025 C74.7612,86.3865 74.6992,87.0305 74.6992,87.9345 L74.6992,90.6825 C74.6992,91.5705 74.7632,92.2065 74.8912,92.5905 C75.0192,92.9745 75.2312,93.1665 75.5272,93.1665 M78.8032,89.2665 C78.8032,88.0905 79.0632,87.1005 79.5832,86.2965 C80.1032,85.4925 80.7472,85.0905 81.5152,85.0905 C82.2912,85.0905 82.9372,85.4925 83.4532,86.2965 C83.9692,87.1005 84.2272,88.1025 84.2272,89.3025 C84.2272,90.5105 83.9712,91.5125 83.4592,92.3085 C82.9472,93.1045 82.3032,93.5025 81.5272,93.5025 C80.7272,93.5025 80.0732,93.1065 79.5652,92.3145 C79.0572,91.5225 78.8032,90.5065 78.8032,89.2665 M81.5272,93.1665 C81.7912,93.1665 81.9912,92.9865 82.1272,92.6265 C82.2632,92.2665 82.3312,91.6185 82.3312,90.6825 L82.3312,87.9345 C82.3312,87.0465 82.2672,86.4065 82.1392,86.0145 C82.0112,85.6225 81.7992,85.4265 81.5032,85.4265 C81.2152,85.4265 81.0092,85.6185 80.8852,86.0025 C80.7612,86.3865 80.6992,87.0305 80.6992,87.9345 L80.6992,90.6825 C80.6992,91.5705 80.7632,92.2065 80.8912,92.5905 C81.0192,92.9745 81.2312,93.1665 81.5272,93.1665 M84.8032,89.2665 C84.8032,88.0905 85.0632,87.1005 85.5832,86.2965 C86.1032,85.4925 86.7472,85.0905 87.5152,85.0905 C88.2912,85.0905 88.9372,85.4925 89.4532,86.2965 C89.9692,87.1005 90.2272,88.1025 90.2272,89.3025 C90.2272,90.5105 89.9712,91.5125 89.4592,92.3085 C88.9472,93.1045 88.3032,93.5025 87.5272,93.5025 C86.7272,93.5025 86.0732,93.1065 85.5652,92.3145 C85.0572,91.5225 84.8032,90.5065 84.8032,89.2665 M87.5272,93.1665 C87.7912,93.1665 87.9912,92.9865 88.1272,92.6265 C88.2632,92.2665 88.3312,91.6185 88.3312,90.6825 L88.3312,87.9345 C88.3312,87.0465 88.2672,86.4065 88.1392,86.0145 C88.0112,85.6225 87.7992,85.4265 87.5032,85.4265 C87.2152,85.4265 87.0092,85.6185 86.8852,86.0025 C86.7612,86.3865 86.6992,87.0305 86.6992,87.9345 L86.6992,90.6825 C86.6992,91.5705 86.7632,92.2065 86.8912,92.5905 C87.0192,92.9745 87.2312,93.1665 87.5272,93.1665"/>
<path class="NoteDot" d="M540.921,231.647 C540.7,231.426 540.589,231.159 540.589,230.847 C540.589,230.534 540.7,230.267 540.921,230.046 C541.142,229.824 541.409,229.714 541.722,229.714 C542.034,229.714 542.301,229.824 542.522,230.046 C542.744,230.267 542.854,230.534 542.854,230.847 C542.854,231.159 542.744,231.426 542.522,231.647 C542.301,231.869 542.034,231.979 541.722,231.979 C541.409,231.979 541.142,231.869 540.921,231.647"/>
<path class="NoteDot" d="M455.947,226.647 C455.726,226.426 455.615,226.159 455.615,225.847 C455.615,225.534 455.726,225.267 455.947,225.046 C456.169,224.824 456.436,224.714 456.748,224.714 C457.061,224.714 457.328,224.824 457.549,225.046 C457.77,225.267 457.881,225.534 457.881,225.847 C457.881,226.159 457.77,226.426 457.549,226.647 C457.328,226.869 457.061,226.979 456.748,226.979 C456.436,226.979 456.169,226.869 455.947,226.647"/>
<path class="NoteDot" d="M381.39,231.647 C381.169,231.426 381.058,231.159 381.058,230.847 C381.058,230.534 381.169,230.267 381.39,230.046 C381.612,229.824 381.879,229.714 382.191,229.714 C382.504,229.714 382.771,229.824 382.992,230.046 C383.213,230.267 383.324,230.534 383.324,230.847 C383.324,231.159 383.213,231.426 382.992,231.647 C382.771,231.869 382.504,231.979 382.191,231.979 C381.879,231.979 381.612,231.869 381.39,231.647"/>
<path class="NoteDot" d="M296.417,221.647 C296.196,221.426 296.085,221.159 296.085,220.847 C296.085,220.534 296.196,220.267 296.417,220.046 C296.638,219.824 296.905,219.714 297.218,219.714 C297.53,219.714 297.797,219.824 298.018,220.046 C298.24,220.267 298.35,220.534 298.35,220.847 C298.35,221.159 298.24,221.426 298.018,221.647 C297.797,221.869 297.53,221.979 297.218,221.979 C296.905,221.979 296.638,221.869 296.417,221.647"/>
<path class="NoteDot" d="M221.86,221.647 C221.638,221.426 221.528,221.159 221.528,220.847 C221.528,220.534 221.638,220.267 221.86,220.046 C222.081,219.824 222.348,219.714 222.661,219.714 C222.973,219.714 223.24,219.824 223.461,220.046 C223.683,220.267 223.793,220.534 223.793,220.847 C223.793,221.159 223.683,221.426 223.461,221.647 C223.24,221.869 222.973,221.979 222.661,221.979 C222.348,221.979 222.081,221.869 221.86,221.647"/>
<path class="NoteDot" d="M136.886,221.647 C136.665,221.426 136.554,221.159 136.554,220.847 C136.554,220.534 136.665,220.267 136.886,220.046 C137.108,219.824 137.375,219.714 137.687,219.714 C138,219.714 138.267,219.824 138.488,220.046 C138.709,220.267 138.82,220.534 138.82,220.847 C138.82,221.159 138.709,221.426 138.488,221.647 C138.267,221.869 138,221.979 137.687,221.979 C137.375,221.979 137.108,221.869 136.886,221.647"/>
<path class="NoteDot" d="M64.8691,221.647 C64.6478,221.426 64.5371,221.159 64.5371,220.847 C64.5371,220.534 64.6478,220.267 64.8691,220.046 C65.0905,219.824 65.3574,219.714 65.6699,219.714 C65.9824,219.714 66.2493,219.824 66.4707,220.046 C66.692,220.267 66.8027,220.534 66.8027,220.847 C66.8027,221.159 66.692,221.426 66.4707,221.647 C66.2493,221.869 65.9824,221.979 65.6699,221.979 C65.3574,221.979 65.0905,221.869 64.8691,221.647"/>
<path class="NoteDot" d="M508.626,136.647 C508.405,136.426 508.294,136.159 508.294,135.847 C508.294,135.534 508.405,135.267 508.626,135.046 C508.848,134.824 509.115,134.714 509.427,134.714 C509.74,134.714 510.007,134.824 510.228,135.046 C510.449,135.267 510.56,135.534 510.56,135.847 C510.56,136.159 510.449,136.426 510.228,136.647 C510.007,136.869 509.74,136.979 509.427,136.979 C509.115,136.979 508.848,136.869 508.626,136.647"/>
<path class="NoteDot" d="M442.59,131.647 C442.369,131.426 442.258,131.159 442.258,130.847 C442.258,130.534 442.369,130.267 442.59,130.046 C442.812,129.824 443.079,129.714 443.391,129.714 C443.704,129.714 443.971,129.824 444.192,130.046 C444.413,130.267 444.524,130.534 444.524,130.847 C444.524,131.159 444.413,131.426 444.192,131.647 C443.971,131.869 443.704,131.979 443.391,131.979 C443.079,131.979 442.812,131.869 442.59,131.647"/>
<path class="NoteDot" d="M366.138,126.647 C365.917,126.426 365.806,126.159 365.806,125.847 C365.806,125.534 365.917,125.267 366.138,125.046 C366.359,124.824 366.626,124.714 366.939,124.714 C367.251,124.714 367.518,124.824 367.74,125.046 C367.961,125.267 368.072,125.534 368.072,125.847 C368.072,126.159 367.961,126.426 367.74,126.647 C367.518,126.869 367.251,126.979 366.939,126.979 C366.626,126.979 366.359,126.869 366.138,126.647"/>
<path class="NoteDot" d="M300.102,126.647 C299.881,126.426 299.77,126.159 299.77,125.847 C299.77,125.534 299.881,125.267 300.102,125.046 C300.323,124.824 300.59,124.714 300.903,124.714 C301.215,124.714 301.482,124.824 301.704,125.046 C301.925,125.267 302.036,125.534 302.036,125.847 C302.036,126.159 301.925,126.426 301.704,126.647 C301.482,126.869 301.215,126.979 300.903,126.979 C300.59,126.979 300.323,126.869 300.102,126.647"/>
<path class="NoteDot" d="M223.65,121.647 C223.428,121.426 223.318,121.159 223.318,120.847 C223.318,120.534 223.428,120.267 223.65,120.046 C223.871,119.824 224.138,119.714 224.45,119.714 C224.763,119.714 225.03,119.824 225.251,120.046 C225.473,120.267 225.583,120.534 225.583,120.847 C225.583,121.159 225.473,121.426 225.251,121.647 C225.03,121.869 224.763,121.979 224.45,121.979 C224.138,121.979 223.871,121.869 223.65,121.647"/>
<path class="NoteDot" d="M157.614,126.647 C157.392,126.426 157.282,126.159 157.282,125.847 C157.282,125.534 157.392,125.267 157.614,125.046 C157.835,124.824 158.102,124.714 158.414,124.714 C158.727,124.714 158.994,124.824 159.215,125.046 C159.437,125.267 159.547,125.534 159.547,125.847 C159.547,126.159 159.437,126.426 159.215,126.647 C158.994,126.869 158.727,126.979 158.414,126.979 C158.102,126.979 157.835,126.869 157.614,126.647"/>
<path class="NoteDot" d="M83.7012,126.647 C83.4798,126.426 83.3691,126.159 83.3691,125.847 C83.3691,125.534 83.4798,125.267 83.7012,125.046 C83.9225,124.824 84.1895,124.714 84.502,124.714 C84.8145,124.714 85.0814,124.824 85.3027,125.046 C85.5241,125.267 85.6348,125.534 85.6348,125.847 C85.6348,126.159 85.5241,126.426 85.3027,126.647 C85.0814,126.869 84.8145,126.979 84.502,126.979 C84.1895,126.979 83.9225,126.869 83.7012,126.647"/>
</svg>
